# MagicaVoxel @ Ephtracy

# group
o 

# material
mtllib obstacle_avo_toast.mtl
usemtl palette

# normals
vn -1 0 0
vn 1 0 0
vn 0 0 1
vn 0 0 -1
vn 0 -1 0
vn 0 1 0

# texcoords
vt 0.00585938 0.5
vt 0.0332031 0.5
vt 0.0683594 0.5
vt 0.490234 0.5
vt 0.537109 0.5

# verts
v 0.2 0.4 -1.2
v 0.2 0.4 -1.6
v 0.2 0.6 -1.2
v 0.2 0.6 -1.6
v 0.3 0.4 -1.1
v 0.3 0.4 -1.2
v 0.3 0.4 -1.6
v 0.3 0.4 -1.7
v 0.3 0.6 -1.1
v 0.3 0.6 -1.2
v 0.3 0.6 -1.6
v 0.3 0.6 -1.7
v 0.4 0.4 -0.1
v 0.4 0.4 -1.1
v 0.4 0.4 -1.7
v 0.4 0.4 -1.8
v 0.4 0.6 -0.1
v 0.4 0.6 -1.1
v 0.4 0.6 -1.7
v 0.4 0.6 -1.8
v 0.5 0.6 -1.2
v 0.5 0.6 -1.6
v 0.5 0.7 -1.2
v 0.5 0.7 -1.6
v 0.6 0.6 -0.3
v 0.6 0.6 -1.2
v 0.6 0.7 -0.3
v 0.6 0.7 -1.2
v 0.6 0.7 -1.3
v 0.6 0.7 -1.5
v 0.6 0.8 -1.3
v 0.6 0.8 -1.5
v 0.7 0.7 -0.4
v 0.7 0.7 -1.3
v 0.7 0.8 -0.4
v 0.7 0.8 -1.3
v 0.8 0.8 -0.5
v 0.8 0.8 -1.3
v 0.8 0.9 -0.5
v 0.8 0.9 -0.7
v 0.8 0.9 -1.1
v 0.8 0.9 -1.3
v 0.8 1.1 -0.7
v 0.8 1.1 -1.1
v 0.9 1.1 -0.8
v 0.9 1.1 -1
v 0.9 1.2 -0.8
v 0.9 1.2 -1
v 1.1 0.4 -1.6
v 1.1 0.4 -1.7
v 1.1 0.6 -1.6
v 1.1 0.6 -1.7
v 1.2 0.4 -1.7
v 1.2 0.4 -1.8
v 1.2 0.6 -1.5
v 1.2 0.6 -1.6
v 1.2 0.6 -1.7
v 1.2 0.6 -1.8
v 1.2 0.7 -1.4
v 1.2 0.7 -1.5
v 1.2 0.7 -1.6
v 1.2 0.8 -1.4
v 1.2 0.8 -1.5
v 0.8 0.4 -1.7
v 0.8 0.4 -1.8
v 0.8 0.6 -1.5
v 0.8 0.6 -1.6
v 0.8 0.6 -1.7
v 0.8 0.6 -1.8
v 0.8 0.7 -1.4
v 0.8 0.7 -1.5
v 0.8 0.7 -1.6
v 0.8 0.8 -1.4
v 0.8 0.8 -1.5
v 0.9 0.4 -1.6
v 0.9 0.4 -1.7
v 0.9 0.6 -1.6
v 0.9 0.6 -1.7
v 1.1 1.1 -0.8
v 1.1 1.1 -1
v 1.1 1.2 -0.8
v 1.1 1.2 -1
v 1.2 0.8 -0.5
v 1.2 0.8 -1.3
v 1.2 0.9 -0.5
v 1.2 0.9 -0.7
v 1.2 0.9 -1.1
v 1.2 0.9 -1.3
v 1.2 1.1 -0.7
v 1.2 1.1 -1.1
v 1.3 0.7 -0.4
v 1.3 0.7 -1.3
v 1.3 0.8 -0.4
v 1.3 0.8 -1.3
v 1.4 0.6 -0.3
v 1.4 0.6 -1.3
v 1.4 0.7 -0.3
v 1.4 0.7 -1.3
v 1.4 0.7 -1.5
v 1.4 0.8 -1.3
v 1.4 0.8 -1.5
v 1.6 0.4 -0.1
v 1.6 0.4 -1.1
v 1.6 0.4 -1.7
v 1.6 0.4 -1.8
v 1.6 0.6 -0.1
v 1.6 0.6 -1.1
v 1.6 0.6 -1.3
v 1.6 0.6 -1.6
v 1.6 0.6 -1.7
v 1.6 0.6 -1.8
v 1.6 0.7 -1.3
v 1.6 0.7 -1.6
v 1.7 0.4 -1.1
v 1.7 0.4 -1.2
v 1.7 0.4 -1.6
v 1.7 0.4 -1.7
v 1.7 0.6 -1.1
v 1.7 0.6 -1.2
v 1.7 0.6 -1.6
v 1.7 0.6 -1.7
v 1.8 0.4 -1.2
v 1.8 0.4 -1.6
v 1.8 0.6 -1.2
v 1.8 0.6 -1.6
v 0.4 0.4 -0.1
v 0.4 0.6 -0.1
v 1.6 0.4 -0.1
v 1.6 0.6 -0.1
v 0.6 0.6 -0.3
v 0.6 0.7 -0.3
v 1.4 0.6 -0.3
v 1.4 0.7 -0.3
v 0.7 0.7 -0.4
v 0.7 0.8 -0.4
v 1.3 0.7 -0.4
v 1.3 0.8 -0.4
v 0.8 0.8 -0.5
v 0.8 0.9 -0.5
v 1.2 0.8 -0.5
v 1.2 0.9 -0.5
v 0.8 0.9 -0.7
v 0.8 1.1 -0.7
v 1.2 0.9 -0.7
v 1.2 1.1 -0.7
v 0.9 1.1 -0.8
v 0.9 1.2 -0.8
v 1.1 1.1 -0.8
v 1.1 1.2 -0.8
v 0.3 0.4 -1.1
v 0.3 0.6 -1.1
v 0.4 0.4 -1.1
v 0.4 0.6 -1.1
v 1.6 0.4 -1.1
v 1.6 0.6 -1.1
v 1.7 0.4 -1.1
v 1.7 0.6 -1.1
v 0.2 0.4 -1.2
v 0.2 0.6 -1.2
v 0.3 0.4 -1.2
v 0.3 0.6 -1.2
v 0.5 0.6 -1.2
v 0.5 0.7 -1.2
v 0.6 0.6 -1.2
v 0.6 0.7 -1.2
v 1.7 0.4 -1.2
v 1.7 0.6 -1.2
v 1.8 0.4 -1.2
v 1.8 0.6 -1.2
v 0.6 0.7 -1.3
v 0.6 0.8 -1.3
v 0.7 0.7 -1.3
v 0.7 0.8 -1.3
v 1.3 0.7 -1.3
v 1.3 0.8 -1.3
v 1.4 0.6 -1.3
v 1.4 0.7 -1.3
v 1.4 0.8 -1.3
v 1.6 0.6 -1.3
v 1.6 0.7 -1.3
v 0.9 1.1 -1
v 0.9 1.2 -1
v 1.1 1.1 -1
v 1.1 1.2 -1
v 0.8 0.9 -1.1
v 0.8 1.1 -1.1
v 1.2 0.9 -1.1
v 1.2 1.1 -1.1
v 0.8 0.8 -1.3
v 0.8 0.9 -1.3
v 1.2 0.8 -1.3
v 1.2 0.9 -1.3
v 0.8 0.7 -1.4
v 0.8 0.8 -1.4
v 1.2 0.7 -1.4
v 1.2 0.8 -1.4
v 0.6 0.7 -1.5
v 0.6 0.8 -1.5
v 0.8 0.6 -1.5
v 0.8 0.7 -1.5
v 0.8 0.8 -1.5
v 1.2 0.6 -1.5
v 1.2 0.7 -1.5
v 1.2 0.8 -1.5
v 1.4 0.7 -1.5
v 1.4 0.8 -1.5
v 0.2 0.4 -1.6
v 0.2 0.6 -1.6
v 0.3 0.4 -1.6
v 0.3 0.6 -1.6
v 0.5 0.6 -1.6
v 0.5 0.7 -1.6
v 0.8 0.6 -1.6
v 0.8 0.7 -1.6
v 0.9 0.4 -1.6
v 0.9 0.6 -1.6
v 1.1 0.4 -1.6
v 1.1 0.6 -1.6
v 1.2 0.6 -1.6
v 1.2 0.7 -1.6
v 1.6 0.6 -1.6
v 1.6 0.7 -1.6
v 1.7 0.4 -1.6
v 1.7 0.6 -1.6
v 1.8 0.4 -1.6
v 1.8 0.6 -1.6
v 0.3 0.4 -1.7
v 0.3 0.6 -1.7
v 0.4 0.4 -1.7
v 0.4 0.6 -1.7
v 0.8 0.4 -1.7
v 0.8 0.6 -1.7
v 0.9 0.4 -1.7
v 0.9 0.6 -1.7
v 1.1 0.4 -1.7
v 1.1 0.6 -1.7
v 1.2 0.4 -1.7
v 1.2 0.6 -1.7
v 1.6 0.4 -1.7
v 1.6 0.6 -1.7
v 1.7 0.4 -1.7
v 1.7 0.6 -1.7
v 0.4 0.4 -1.8
v 0.4 0.6 -1.8
v 0.8 0.4 -1.8
v 0.8 0.6 -1.8
v 1.2 0.4 -1.8
v 1.2 0.6 -1.8
v 1.6 0.4 -1.8
v 1.6 0.6 -1.8
v 0.4 0.4 -0.1
v 1.6 0.4 -0.1
v 0.5 0.4 -0.2
v 1.5 0.4 -0.2
v 0.3 0.4 -1.1
v 0.4 0.4 -1.1
v 1.6 0.4 -1.1
v 1.7 0.4 -1.1
v 0.2 0.4 -1.2
v 0.3 0.4 -1.2
v 0.5 0.4 -1.2
v 1.5 0.4 -1.2
v 1.7 0.4 -1.2
v 1.8 0.4 -1.2
v 0.8 0.4 -1.5
v 1.2 0.4 -1.5
v 0.2 0.4 -1.6
v 0.3 0.4 -1.6
v 0.4 0.4 -1.6
v 0.9 0.4 -1.6
v 1.1 0.4 -1.6
v 1.6 0.4 -1.6
v 1.7 0.4 -1.6
v 1.8 0.4 -1.6
v 0.3 0.4 -1.7
v 0.4 0.4 -1.7
v 0.8 0.4 -1.7
v 0.9 0.4 -1.7
v 1.1 0.4 -1.7
v 1.2 0.4 -1.7
v 1.6 0.4 -1.7
v 1.7 0.4 -1.7
v 0.4 0.4 -1.8
v 0.8 0.4 -1.8
v 1.2 0.4 -1.8
v 1.6 0.4 -1.8
v 0.4 0.6 -0.1
v 1.6 0.6 -0.1
v 0.5 0.6 -0.2
v 1.5 0.6 -0.2
v 0.6 0.6 -0.3
v 1.4 0.6 -0.3
v 0.3 0.6 -1.1
v 0.4 0.6 -1.1
v 1.6 0.6 -1.1
v 1.7 0.6 -1.1
v 0.2 0.6 -1.2
v 0.3 0.6 -1.2
v 0.5 0.6 -1.2
v 0.6 0.6 -1.2
v 1.5 0.6 -1.2
v 1.7 0.6 -1.2
v 1.8 0.6 -1.2
v 1.4 0.6 -1.3
v 1.6 0.6 -1.3
v 0.8 0.6 -1.5
v 1.2 0.6 -1.5
v 0.2 0.6 -1.6
v 0.3 0.6 -1.6
v 0.4 0.6 -1.6
v 0.5 0.6 -1.6
v 0.8 0.6 -1.6
v 0.9 0.6 -1.6
v 1.1 0.6 -1.6
v 1.2 0.6 -1.6
v 1.6 0.6 -1.6
v 1.7 0.6 -1.6
v 1.8 0.6 -1.6
v 0.3 0.6 -1.7
v 0.4 0.6 -1.7
v 0.8 0.6 -1.7
v 0.9 0.6 -1.7
v 1.1 0.6 -1.7
v 1.2 0.6 -1.7
v 1.6 0.6 -1.7
v 1.7 0.6 -1.7
v 0.4 0.6 -1.8
v 0.8 0.6 -1.8
v 1.2 0.6 -1.8
v 1.6 0.6 -1.8
v 0.6 0.7 -0.3
v 1.4 0.7 -0.3
v 0.7 0.7 -0.4
v 1.3 0.7 -0.4
v 0.5 0.7 -1.2
v 0.6 0.7 -1.2
v 0.6 0.7 -1.3
v 0.7 0.7 -1.3
v 1.3 0.7 -1.3
v 1.4 0.7 -1.3
v 1.6 0.7 -1.3
v 0.8 0.7 -1.4
v 1.2 0.7 -1.4
v 0.6 0.7 -1.5
v 0.8 0.7 -1.5
v 1.2 0.7 -1.5
v 1.4 0.7 -1.5
v 0.5 0.7 -1.6
v 0.8 0.7 -1.6
v 1.2 0.7 -1.6
v 1.6 0.7 -1.6
v 0.7 0.8 -0.4
v 1.3 0.8 -0.4
v 0.8 0.8 -0.5
v 1.2 0.8 -0.5
v 0.6 0.8 -1.3
v 0.7 0.8 -1.3
v 0.8 0.8 -1.3
v 1.2 0.8 -1.3
v 1.3 0.8 -1.3
v 1.4 0.8 -1.3
v 0.8 0.8 -1.4
v 1.2 0.8 -1.4
v 0.6 0.8 -1.5
v 0.8 0.8 -1.5
v 1.2 0.8 -1.5
v 1.4 0.8 -1.5
v 0.8 0.9 -0.5
v 1.2 0.9 -0.5
v 0.8 0.9 -0.7
v 1.2 0.9 -0.7
v 0.8 0.9 -1.1
v 1.2 0.9 -1.1
v 0.8 0.9 -1.3
v 1.2 0.9 -1.3
v 0.8 1.1 -0.7
v 1.2 1.1 -0.7
v 0.9 1.1 -0.8
v 1.1 1.1 -0.8
v 0.9 1.1 -1
v 1.1 1.1 -1
v 0.8 1.1 -1.1
v 1.2 1.1 -1.1
v 0.9 1.2 -0.8
v 1.1 1.2 -0.8
v 0.9 1.2 -1
v 1.1 1.2 -1

# faces
f 3/5/1 2/5/1 1/5/1
f 4/5/1 2/5/1 3/5/1
f 9/5/1 6/5/1 5/5/1
f 10/5/1 6/5/1 9/5/1
f 11/5/1 8/5/1 7/5/1
f 12/5/1 8/5/1 11/5/1
f 17/5/1 14/5/1 13/5/1
f 18/5/1 14/5/1 17/5/1
f 19/5/1 16/5/1 15/5/1
f 20/5/1 16/5/1 19/5/1
f 23/4/1 22/4/1 21/4/1
f 24/4/1 22/4/1 23/4/1
f 27/4/1 26/4/1 25/4/1
f 28/4/1 26/4/1 27/4/1
f 31/4/1 30/4/1 29/4/1
f 32/4/1 30/4/1 31/4/1
f 35/4/1 34/4/1 33/4/1
f 36/4/1 34/4/1 35/4/1
f 39/4/1 38/4/1 37/4/1
f 40/4/1 38/4/1 39/4/1
f 41/4/1 38/4/1 40/4/1
f 42/4/1 38/4/1 41/4/1
f 43/1/1 41/1/1 40/1/1
f 44/1/1 41/1/1 43/1/1
f 47/3/1 46/3/1 45/3/1
f 48/3/1 46/3/1 47/3/1
f 51/5/1 50/5/1 49/5/1
f 52/5/1 50/5/1 51/5/1
f 57/5/1 54/5/1 53/5/1
f 58/5/1 54/5/1 57/5/1
f 60/4/1 56/4/1 55/4/1
f 61/4/1 56/4/1 60/4/1
f 62/4/1 60/4/1 59/4/1
f 63/4/1 60/4/1 62/4/1
f 64/5/2 65/5/2 68/5/2
f 68/5/2 65/5/2 69/5/2
f 66/4/2 67/4/2 71/4/2
f 71/4/2 67/4/2 72/4/2
f 70/4/2 71/4/2 73/4/2
f 73/4/2 71/4/2 74/4/2
f 75/5/2 76/5/2 77/5/2
f 77/5/2 76/5/2 78/5/2
f 79/3/2 80/3/2 81/3/2
f 81/3/2 80/3/2 82/3/2
f 83/4/2 84/4/2 85/4/2
f 85/4/2 84/4/2 86/4/2
f 86/4/2 84/4/2 87/4/2
f 87/4/2 84/4/2 88/4/2
f 86/1/2 87/1/2 89/1/2
f 89/1/2 87/1/2 90/1/2
f 91/4/2 92/4/2 93/4/2
f 93/4/2 92/4/2 94/4/2
f 95/4/2 96/4/2 97/4/2
f 97/4/2 96/4/2 98/4/2
f 98/4/2 99/4/2 100/4/2
f 100/4/2 99/4/2 101/4/2
f 102/5/2 103/5/2 106/5/2
f 106/5/2 103/5/2 107/5/2
f 104/5/2 105/5/2 110/5/2
f 110/5/2 105/5/2 111/5/2
f 108/4/2 109/4/2 112/4/2
f 112/4/2 109/4/2 113/4/2
f 114/5/2 115/5/2 118/5/2
f 118/5/2 115/5/2 119/5/2
f 116/5/2 117/5/2 120/5/2
f 120/5/2 117/5/2 121/5/2
f 122/5/2 123/5/2 124/5/2
f 124/5/2 123/5/2 125/5/2
f 128/5/3 127/5/3 126/5/3
f 129/5/3 127/5/3 128/5/3
f 132/4/3 131/4/3 130/4/3
f 133/4/3 131/4/3 132/4/3
f 136/4/3 135/4/3 134/4/3
f 137/4/3 135/4/3 136/4/3
f 140/4/3 139/4/3 138/4/3
f 141/4/3 139/4/3 140/4/3
f 144/1/3 143/1/3 142/1/3
f 145/1/3 143/1/3 144/1/3
f 148/3/3 147/3/3 146/3/3
f 149/3/3 147/3/3 148/3/3
f 152/5/3 151/5/3 150/5/3
f 153/5/3 151/5/3 152/5/3
f 156/5/3 155/5/3 154/5/3
f 157/5/3 155/5/3 156/5/3
f 160/5/3 159/5/3 158/5/3
f 161/5/3 159/5/3 160/5/3
f 164/4/3 163/4/3 162/4/3
f 165/4/3 163/4/3 164/4/3
f 168/5/3 167/5/3 166/5/3
f 169/5/3 167/5/3 168/5/3
f 172/4/3 171/4/3 170/4/3
f 173/4/3 171/4/3 172/4/3
f 177/4/3 175/4/3 174/4/3
f 178/4/3 175/4/3 177/4/3
f 179/4/3 177/4/3 176/4/3
f 180/4/3 177/4/3 179/4/3
f 181/3/4 182/3/4 183/3/4
f 183/3/4 182/3/4 184/3/4
f 185/1/4 186/1/4 187/1/4
f 187/1/4 186/1/4 188/1/4
f 189/4/4 190/4/4 191/4/4
f 191/4/4 190/4/4 192/4/4
f 193/4/4 194/4/4 195/4/4
f 195/4/4 194/4/4 196/4/4
f 197/4/4 198/4/4 200/4/4
f 200/4/4 198/4/4 201/4/4
f 199/4/4 200/4/4 202/4/4
f 202/4/4 200/4/4 203/4/4
f 203/4/4 204/4/4 205/4/4
f 205/4/4 204/4/4 206/4/4
f 207/5/4 208/5/4 209/5/4
f 209/5/4 208/5/4 210/5/4
f 211/4/4 212/4/4 213/4/4
f 213/4/4 212/4/4 214/4/4
f 215/5/4 216/5/4 217/5/4
f 217/5/4 216/5/4 218/5/4
f 219/4/4 220/4/4 221/4/4
f 221/4/4 220/4/4 222/4/4
f 223/5/4 224/5/4 225/5/4
f 225/5/4 224/5/4 226/5/4
f 227/5/4 228/5/4 229/5/4
f 229/5/4 228/5/4 230/5/4
f 231/5/4 232/5/4 233/5/4
f 233/5/4 232/5/4 234/5/4
f 235/5/4 236/5/4 237/5/4
f 237/5/4 236/5/4 238/5/4
f 239/5/4 240/5/4 241/5/4
f 241/5/4 240/5/4 242/5/4
f 243/5/4 244/5/4 245/5/4
f 245/5/4 244/5/4 246/5/4
f 247/5/4 248/5/4 249/5/4
f 249/5/4 248/5/4 250/5/4
f 253/5/5 252/5/5 251/5/5
f 254/5/5 252/5/5 253/5/5
f 256/5/5 253/5/5 251/5/5
f 257/5/5 252/5/5 254/5/5
f 260/5/5 256/5/5 255/5/5
f 261/2/5 254/2/5 253/2/5
f 261/5/5 253/5/5 256/5/5
f 261/5/5 256/5/5 260/5/5
f 262/5/5 258/5/5 257/5/5
f 262/2/5 254/2/5 261/2/5
f 262/5/5 257/5/5 254/5/5
f 263/5/5 258/5/5 262/5/5
f 265/2/5 261/2/5 260/2/5
f 265/2/5 262/2/5 261/2/5
f 265/2/5 263/2/5 262/2/5
f 266/2/5 263/2/5 265/2/5
f 267/5/5 260/5/5 259/5/5
f 268/2/5 265/2/5 260/2/5
f 268/5/5 260/5/5 267/5/5
f 269/2/5 265/2/5 268/2/5
f 270/5/5 266/5/5 265/5/5
f 271/5/5 266/5/5 270/5/5
f 272/2/5 263/2/5 266/2/5
f 273/5/5 264/5/5 263/5/5
f 273/2/5 263/2/5 272/2/5
f 274/5/5 264/5/5 273/5/5
f 275/5/5 269/5/5 268/5/5
f 276/2/5 265/2/5 269/2/5
f 276/5/5 269/5/5 275/5/5
f 277/5/5 270/5/5 265/5/5
f 277/2/5 265/2/5 276/2/5
f 278/5/5 270/5/5 277/5/5
f 279/5/5 266/5/5 271/5/5
f 280/2/5 272/2/5 266/2/5
f 280/5/5 266/5/5 279/5/5
f 281/5/5 273/5/5 272/5/5
f 281/2/5 272/2/5 280/2/5
f 282/5/5 273/5/5 281/5/5
f 283/5/5 277/5/5 276/5/5
f 284/5/5 277/5/5 283/5/5
f 285/5/5 281/5/5 280/5/5
f 286/5/5 281/5/5 285/5/5
f 287/5/6 288/5/6 289/5/6
f 289/5/6 288/5/6 290/5/6
f 289/2/6 290/2/6 291/2/6
f 291/2/6 290/2/6 292/2/6
f 287/5/6 289/5/6 294/5/6
f 290/5/6 288/5/6 295/5/6
f 293/5/6 294/5/6 298/5/6
f 289/2/6 291/2/6 299/2/6
f 294/5/6 289/5/6 299/5/6
f 298/5/6 294/5/6 299/5/6
f 299/2/6 291/2/6 300/2/6
f 292/2/6 290/2/6 301/2/6
f 295/5/6 296/5/6 301/5/6
f 290/5/6 295/5/6 301/5/6
f 301/5/6 296/5/6 302/5/6
f 292/2/6 301/2/6 304/2/6
f 301/2/6 302/2/6 304/2/6
f 304/2/6 302/2/6 305/2/6
f 297/5/6 298/5/6 308/5/6
f 298/2/6 299/2/6 309/2/6
f 308/5/6 298/5/6 309/5/6
f 309/2/6 299/2/6 310/2/6
f 310/2/6 299/2/6 311/2/6
f 306/5/6 307/5/6 312/5/6
f 312/5/6 307/5/6 313/5/6
f 313/5/6 307/5/6 314/5/6
f 314/5/6 307/5/6 315/5/6
f 305/2/6 302/2/6 316/2/6
f 302/5/6 303/5/6 317/5/6
f 316/2/6 302/2/6 317/2/6
f 317/5/6 303/5/6 318/5/6
f 309/5/6 310/5/6 319/5/6
f 310/2/6 311/2/6 320/2/6
f 319/5/6 310/5/6 320/5/6
f 311/2/6 312/2/6 320/2/6
f 312/5/6 313/5/6 321/5/6
f 320/2/6 312/2/6 321/2/6
f 321/5/6 313/5/6 322/5/6
f 314/5/6 315/5/6 323/5/6
f 315/2/6 316/2/6 324/2/6
f 323/5/6 315/5/6 324/5/6
f 316/5/6 317/5/6 325/5/6
f 324/2/6 316/2/6 325/2/6
f 325/5/6 317/5/6 326/5/6
f 320/5/6 321/5/6 327/5/6
f 327/5/6 321/5/6 328/5/6
f 324/5/6 325/5/6 329/5/6
f 329/5/6 325/5/6 330/5/6
f 331/4/6 332/4/6 333/4/6
f 333/4/6 332/4/6 334/4/6
f 331/4/6 333/4/6 336/4/6
f 336/4/6 333/4/6 337/4/6
f 335/4/6 336/4/6 337/4/6
f 337/4/6 333/4/6 338/4/6
f 334/4/6 332/4/6 339/4/6
f 339/4/6 332/4/6 340/4/6
f 335/4/6 337/4/6 344/4/6
f 342/4/6 343/4/6 345/4/6
f 345/4/6 343/4/6 346/4/6
f 340/4/6 341/4/6 347/4/6
f 335/4/6 344/4/6 348/4/6
f 344/4/6 345/4/6 348/4/6
f 348/4/6 345/4/6 349/4/6
f 346/4/6 347/4/6 350/4/6
f 347/4/6 341/4/6 351/4/6
f 350/4/6 347/4/6 351/4/6
f 352/4/6 353/4/6 354/4/6
f 354/4/6 353/4/6 355/4/6
f 352/4/6 354/4/6 357/4/6
f 357/4/6 354/4/6 358/4/6
f 355/4/6 353/4/6 359/4/6
f 359/4/6 353/4/6 360/4/6
f 357/4/6 358/4/6 362/4/6
f 360/4/6 361/4/6 362/4/6
f 359/4/6 360/4/6 362/4/6
f 358/4/6 359/4/6 362/4/6
f 356/4/6 357/4/6 362/4/6
f 362/4/6 361/4/6 363/4/6
f 356/4/6 362/4/6 364/4/6
f 364/4/6 362/4/6 365/4/6
f 363/4/6 361/4/6 366/4/6
f 366/4/6 361/4/6 367/4/6
f 368/4/6 369/4/6 370/4/6
f 370/4/6 369/4/6 371/4/6
f 372/4/6 373/4/6 374/4/6
f 374/4/6 373/4/6 375/4/6
f 376/1/6 377/1/6 378/1/6
f 378/1/6 377/1/6 379/1/6
f 376/1/6 378/1/6 380/1/6
f 379/1/6 377/1/6 381/1/6
f 376/1/6 380/1/6 382/1/6
f 380/1/6 381/1/6 382/1/6
f 381/1/6 377/1/6 383/1/6
f 382/1/6 381/1/6 383/1/6
f 384/3/6 385/3/6 386/3/6
f 386/3/6 385/3/6 387/3/6
